# SM_Arena_Candle_Cluster_3x_045 - generated modular arena asset
# pivot base center, 1 unit = 1m, clean topology
o SM_Arena_Candle_Cluster_3x_045
v 0.225000 0.000000 0.000000
v 0.225000 0.060000 0.000000
v 0.207873 0.060000 0.086104
v 0.207873 0.000000 0.086104
v 0.207873 0.000000 0.086104
v 0.207873 0.060000 0.086104
v 0.159099 0.060000 0.159099
v 0.159099 0.000000 0.159099
v 0.159099 0.000000 0.159099
v 0.159099 0.060000 0.159099
v 0.086104 0.060000 0.207873
v 0.086104 0.000000 0.207873
v 0.086104 0.000000 0.207873
v 0.086104 0.060000 0.207873
v 0.000000 0.060000 0.225000
v 0.000000 0.000000 0.225000
v 0.000000 0.000000 0.225000
v 0.000000 0.060000 0.225000
v -0.086104 0.060000 0.207873
v -0.086104 0.000000 0.207873
v -0.086104 0.000000 0.207873
v -0.086104 0.060000 0.207873
v -0.159099 0.060000 0.159099
v -0.159099 0.000000 0.159099
v -0.159099 0.000000 0.159099
v -0.159099 0.060000 0.159099
v -0.207873 0.060000 0.086104
v -0.207873 0.000000 0.086104
v -0.207873 0.000000 0.086104
v -0.207873 0.060000 0.086104
v -0.225000 0.060000 0.000000
v -0.225000 0.000000 0.000000
v -0.225000 0.000000 0.000000
v -0.225000 0.060000 0.000000
v -0.207873 0.060000 -0.086104
v -0.207873 0.000000 -0.086104
v -0.207873 0.000000 -0.086104
v -0.207873 0.060000 -0.086104
v -0.159099 0.060000 -0.159099
v -0.159099 0.000000 -0.159099
v -0.159099 0.000000 -0.159099
v -0.159099 0.060000 -0.159099
v -0.086104 0.060000 -0.207873
v -0.086104 0.000000 -0.207873
v -0.086104 0.000000 -0.207873
v -0.086104 0.060000 -0.207873
v -0.000000 0.060000 -0.225000
v -0.000000 0.000000 -0.225000
v -0.000000 0.000000 -0.225000
v -0.000000 0.060000 -0.225000
v 0.086104 0.060000 -0.207873
v 0.086104 0.000000 -0.207873
v 0.086104 0.000000 -0.207873
v 0.086104 0.060000 -0.207873
v 0.159099 0.060000 -0.159099
v 0.159099 0.000000 -0.159099
v 0.159099 0.000000 -0.159099
v 0.159099 0.060000 -0.159099
v 0.207873 0.060000 -0.086104
v 0.207873 0.000000 -0.086104
v 0.207873 0.000000 -0.086104
v 0.207873 0.060000 -0.086104
v 0.225000 0.060000 -0.000000
v 0.225000 0.000000 -0.000000
v 0.000000 0.060000 0.000000
v 0.225000 0.060000 0.000000
v 0.207873 0.060000 0.086104
v 0.000000 0.060000 0.000000
v 0.207873 0.060000 0.086104
v 0.159099 0.060000 0.159099
v 0.000000 0.060000 0.000000
v 0.159099 0.060000 0.159099
v 0.086104 0.060000 0.207873
v 0.000000 0.060000 0.000000
v 0.086104 0.060000 0.207873
v 0.000000 0.060000 0.225000
v 0.000000 0.060000 0.000000
v 0.000000 0.060000 0.225000
v -0.086104 0.060000 0.207873
v 0.000000 0.060000 0.000000
v -0.086104 0.060000 0.207873
v -0.159099 0.060000 0.159099
v 0.000000 0.060000 0.000000
v -0.159099 0.060000 0.159099
v -0.207873 0.060000 0.086104
v 0.000000 0.060000 0.000000
v -0.207873 0.060000 0.086104
v -0.225000 0.060000 0.000000
v 0.000000 0.060000 0.000000
v -0.225000 0.060000 0.000000
v -0.207873 0.060000 -0.086104
v 0.000000 0.060000 0.000000
v -0.207873 0.060000 -0.086104
v -0.159099 0.060000 -0.159099
v 0.000000 0.060000 0.000000
v -0.159099 0.060000 -0.159099
v -0.086104 0.060000 -0.207873
v 0.000000 0.060000 0.000000
v -0.086104 0.060000 -0.207873
v -0.000000 0.060000 -0.225000
v 0.000000 0.060000 0.000000
v -0.000000 0.060000 -0.225000
v 0.086104 0.060000 -0.207873
v 0.000000 0.060000 0.000000
v 0.086104 0.060000 -0.207873
v 0.159099 0.060000 -0.159099
v 0.000000 0.060000 0.000000
v 0.159099 0.060000 -0.159099
v 0.207873 0.060000 -0.086104
v 0.000000 0.060000 0.000000
v 0.207873 0.060000 -0.086104
v 0.225000 0.060000 -0.000000
v 0.000000 0.000000 0.000000
v 0.207873 0.000000 0.086104
v 0.225000 0.000000 0.000000
v 0.000000 0.000000 0.000000
v 0.159099 0.000000 0.159099
v 0.207873 0.000000 0.086104
v 0.000000 0.000000 0.000000
v 0.086104 0.000000 0.207873
v 0.159099 0.000000 0.159099
v 0.000000 0.000000 0.000000
v 0.000000 0.000000 0.225000
v 0.086104 0.000000 0.207873
v 0.000000 0.000000 0.000000
v -0.086104 0.000000 0.207873
v 0.000000 0.000000 0.225000
v 0.000000 0.000000 0.000000
v -0.159099 0.000000 0.159099
v -0.086104 0.000000 0.207873
v 0.000000 0.000000 0.000000
v -0.207873 0.000000 0.086104
v -0.159099 0.000000 0.159099
v 0.000000 0.000000 0.000000
v -0.225000 0.000000 0.000000
v -0.207873 0.000000 0.086104
v 0.000000 0.000000 0.000000
v -0.207873 0.000000 -0.086104
v -0.225000 0.000000 0.000000
v 0.000000 0.000000 0.000000
v -0.159099 0.000000 -0.159099
v -0.207873 0.000000 -0.086104
v 0.000000 0.000000 0.000000
v -0.086104 0.000000 -0.207873
v -0.159099 0.000000 -0.159099
v 0.000000 0.000000 0.000000
v -0.000000 0.000000 -0.225000
v -0.086104 0.000000 -0.207873
v 0.000000 0.000000 0.000000
v 0.086104 0.000000 -0.207873
v -0.000000 0.000000 -0.225000
v 0.000000 0.000000 0.000000
v 0.159099 0.000000 -0.159099
v 0.086104 0.000000 -0.207873
v 0.000000 0.000000 0.000000
v 0.207873 0.000000 -0.086104
v 0.159099 0.000000 -0.159099
v 0.000000 0.000000 0.000000
v 0.225000 0.000000 -0.000000
v 0.207873 0.000000 -0.086104
v 0.045000 0.060000 0.000000
v 0.045000 0.240000 0.000000
v 0.038971 0.240000 0.022500
v 0.038971 0.060000 0.022500
v 0.038971 0.060000 0.022500
v 0.038971 0.240000 0.022500
v 0.022500 0.240000 0.038971
v 0.022500 0.060000 0.038971
v 0.022500 0.060000 0.038971
v 0.022500 0.240000 0.038971
v 0.000000 0.240000 0.045000
v 0.000000 0.060000 0.045000
v 0.000000 0.060000 0.045000
v 0.000000 0.240000 0.045000
v -0.022500 0.240000 0.038971
v -0.022500 0.060000 0.038971
v -0.022500 0.060000 0.038971
v -0.022500 0.240000 0.038971
v -0.038971 0.240000 0.022500
v -0.038971 0.060000 0.022500
v -0.038971 0.060000 0.022500
v -0.038971 0.240000 0.022500
v -0.045000 0.240000 0.000000
v -0.045000 0.060000 0.000000
v -0.045000 0.060000 0.000000
v -0.045000 0.240000 0.000000
v -0.038971 0.240000 -0.022500
v -0.038971 0.060000 -0.022500
v -0.038971 0.060000 -0.022500
v -0.038971 0.240000 -0.022500
v -0.022500 0.240000 -0.038971
v -0.022500 0.060000 -0.038971
v -0.022500 0.060000 -0.038971
v -0.022500 0.240000 -0.038971
v -0.000000 0.240000 -0.045000
v -0.000000 0.060000 -0.045000
v -0.000000 0.060000 -0.045000
v -0.000000 0.240000 -0.045000
v 0.022500 0.240000 -0.038971
v 0.022500 0.060000 -0.038971
v 0.022500 0.060000 -0.038971
v 0.022500 0.240000 -0.038971
v 0.038971 0.240000 -0.022500
v 0.038971 0.060000 -0.022500
v 0.038971 0.060000 -0.022500
v 0.038971 0.240000 -0.022500
v 0.045000 0.240000 -0.000000
v 0.045000 0.060000 -0.000000
v 0.000000 0.240000 0.000000
v 0.045000 0.240000 0.000000
v 0.038971 0.240000 0.022500
v 0.000000 0.240000 0.000000
v 0.038971 0.240000 0.022500
v 0.022500 0.240000 0.038971
v 0.000000 0.240000 0.000000
v 0.022500 0.240000 0.038971
v 0.000000 0.240000 0.045000
v 0.000000 0.240000 0.000000
v 0.000000 0.240000 0.045000
v -0.022500 0.240000 0.038971
v 0.000000 0.240000 0.000000
v -0.022500 0.240000 0.038971
v -0.038971 0.240000 0.022500
v 0.000000 0.240000 0.000000
v -0.038971 0.240000 0.022500
v -0.045000 0.240000 0.000000
v 0.000000 0.240000 0.000000
v -0.045000 0.240000 0.000000
v -0.038971 0.240000 -0.022500
v 0.000000 0.240000 0.000000
v -0.038971 0.240000 -0.022500
v -0.022500 0.240000 -0.038971
v 0.000000 0.240000 0.000000
v -0.022500 0.240000 -0.038971
v -0.000000 0.240000 -0.045000
v 0.000000 0.240000 0.000000
v -0.000000 0.240000 -0.045000
v 0.022500 0.240000 -0.038971
v 0.000000 0.240000 0.000000
v 0.022500 0.240000 -0.038971
v 0.038971 0.240000 -0.022500
v 0.000000 0.240000 0.000000
v 0.038971 0.240000 -0.022500
v 0.045000 0.240000 -0.000000
v 0.000000 0.060000 0.000000
v 0.038971 0.060000 0.022500
v 0.045000 0.060000 0.000000
v 0.000000 0.060000 0.000000
v 0.022500 0.060000 0.038971
v 0.038971 0.060000 0.022500
v 0.000000 0.060000 0.000000
v 0.000000 0.060000 0.045000
v 0.022500 0.060000 0.038971
v 0.000000 0.060000 0.000000
v -0.022500 0.060000 0.038971
v 0.000000 0.060000 0.045000
v 0.000000 0.060000 0.000000
v -0.038971 0.060000 0.022500
v -0.022500 0.060000 0.038971
v 0.000000 0.060000 0.000000
v -0.045000 0.060000 0.000000
v -0.038971 0.060000 0.022500
v 0.000000 0.060000 0.000000
v -0.038971 0.060000 -0.022500
v -0.045000 0.060000 0.000000
v 0.000000 0.060000 0.000000
v -0.022500 0.060000 -0.038971
v -0.038971 0.060000 -0.022500
v 0.000000 0.060000 0.000000
v -0.000000 0.060000 -0.045000
v -0.022500 0.060000 -0.038971
v 0.000000 0.060000 0.000000
v 0.022500 0.060000 -0.038971
v -0.000000 0.060000 -0.045000
v 0.000000 0.060000 0.000000
v 0.038971 0.060000 -0.022500
v 0.022500 0.060000 -0.038971
v 0.000000 0.060000 0.000000
v 0.045000 0.060000 -0.000000
v 0.038971 0.060000 -0.022500
v 0.165000 0.060000 0.080000
v 0.165000 0.280000 0.080000
v 0.158971 0.280000 0.102500
v 0.158971 0.060000 0.102500
v 0.158971 0.060000 0.102500
v 0.158971 0.280000 0.102500
v 0.142500 0.280000 0.118971
v 0.142500 0.060000 0.118971
v 0.142500 0.060000 0.118971
v 0.142500 0.280000 0.118971
v 0.120000 0.280000 0.125000
v 0.120000 0.060000 0.125000
v 0.120000 0.060000 0.125000
v 0.120000 0.280000 0.125000
v 0.097500 0.280000 0.118971
v 0.097500 0.060000 0.118971
v 0.097500 0.060000 0.118971
v 0.097500 0.280000 0.118971
v 0.081029 0.280000 0.102500
v 0.081029 0.060000 0.102500
v 0.081029 0.060000 0.102500
v 0.081029 0.280000 0.102500
v 0.075000 0.280000 0.080000
v 0.075000 0.060000 0.080000
v 0.075000 0.060000 0.080000
v 0.075000 0.280000 0.080000
v 0.081029 0.280000 0.057500
v 0.081029 0.060000 0.057500
v 0.081029 0.060000 0.057500
v 0.081029 0.280000 0.057500
v 0.097500 0.280000 0.041029
v 0.097500 0.060000 0.041029
v 0.097500 0.060000 0.041029
v 0.097500 0.280000 0.041029
v 0.120000 0.280000 0.035000
v 0.120000 0.060000 0.035000
v 0.120000 0.060000 0.035000
v 0.120000 0.280000 0.035000
v 0.142500 0.280000 0.041029
v 0.142500 0.060000 0.041029
v 0.142500 0.060000 0.041029
v 0.142500 0.280000 0.041029
v 0.158971 0.280000 0.057500
v 0.158971 0.060000 0.057500
v 0.158971 0.060000 0.057500
v 0.158971 0.280000 0.057500
v 0.165000 0.280000 0.080000
v 0.165000 0.060000 0.080000
v 0.120000 0.280000 0.080000
v 0.165000 0.280000 0.080000
v 0.158971 0.280000 0.102500
v 0.120000 0.060000 0.080000
v 0.158971 0.060000 0.102500
v 0.165000 0.060000 0.080000
v 0.120000 0.280000 0.080000
v 0.158971 0.280000 0.102500
v 0.142500 0.280000 0.118971
v 0.120000 0.060000 0.080000
v 0.142500 0.060000 0.118971
v 0.158971 0.060000 0.102500
v 0.120000 0.280000 0.080000
v 0.142500 0.280000 0.118971
v 0.120000 0.280000 0.125000
v 0.120000 0.060000 0.080000
v 0.120000 0.060000 0.125000
v 0.142500 0.060000 0.118971
v 0.120000 0.280000 0.080000
v 0.120000 0.280000 0.125000
v 0.097500 0.280000 0.118971
v 0.120000 0.060000 0.080000
v 0.097500 0.060000 0.118971
v 0.120000 0.060000 0.125000
v 0.120000 0.280000 0.080000
v 0.097500 0.280000 0.118971
v 0.081029 0.280000 0.102500
v 0.120000 0.060000 0.080000
v 0.081029 0.060000 0.102500
v 0.097500 0.060000 0.118971
v 0.120000 0.280000 0.080000
v 0.081029 0.280000 0.102500
v 0.075000 0.280000 0.080000
v 0.120000 0.060000 0.080000
v 0.075000 0.060000 0.080000
v 0.081029 0.060000 0.102500
v 0.120000 0.280000 0.080000
v 0.075000 0.280000 0.080000
v 0.081029 0.280000 0.057500
v 0.120000 0.060000 0.080000
v 0.081029 0.060000 0.057500
v 0.075000 0.060000 0.080000
v 0.120000 0.280000 0.080000
v 0.081029 0.280000 0.057500
v 0.097500 0.280000 0.041029
v 0.120000 0.060000 0.080000
v 0.097500 0.060000 0.041029
v 0.081029 0.060000 0.057500
v 0.120000 0.280000 0.080000
v 0.097500 0.280000 0.041029
v 0.120000 0.280000 0.035000
v 0.120000 0.060000 0.080000
v 0.120000 0.060000 0.035000
v 0.097500 0.060000 0.041029
v 0.120000 0.280000 0.080000
v 0.120000 0.280000 0.035000
v 0.142500 0.280000 0.041029
v 0.120000 0.060000 0.080000
v 0.142500 0.060000 0.041029
v 0.120000 0.060000 0.035000
v 0.120000 0.280000 0.080000
v 0.142500 0.280000 0.041029
v 0.158971 0.280000 0.057500
v 0.120000 0.060000 0.080000
v 0.158971 0.060000 0.057500
v 0.142500 0.060000 0.041029
v 0.120000 0.280000 0.080000
v 0.158971 0.280000 0.057500
v 0.165000 0.280000 0.080000
v 0.120000 0.060000 0.080000
v 0.165000 0.060000 0.080000
v 0.158971 0.060000 0.057500
v -0.080000 0.060000 0.070000
v -0.080000 0.310000 0.070000
v -0.086699 0.310000 0.095000
v -0.086699 0.060000 0.095000
v -0.086699 0.060000 0.095000
v -0.086699 0.310000 0.095000
v -0.105000 0.310000 0.113301
v -0.105000 0.060000 0.113301
v -0.105000 0.060000 0.113301
v -0.105000 0.310000 0.113301
v -0.130000 0.310000 0.120000
v -0.130000 0.060000 0.120000
v -0.130000 0.060000 0.120000
v -0.130000 0.310000 0.120000
v -0.155000 0.310000 0.113301
v -0.155000 0.060000 0.113301
v -0.155000 0.060000 0.113301
v -0.155000 0.310000 0.113301
v -0.173301 0.310000 0.095000
v -0.173301 0.060000 0.095000
v -0.173301 0.060000 0.095000
v -0.173301 0.310000 0.095000
v -0.180000 0.310000 0.070000
v -0.180000 0.060000 0.070000
v -0.180000 0.060000 0.070000
v -0.180000 0.310000 0.070000
v -0.173301 0.310000 0.045000
v -0.173301 0.060000 0.045000
v -0.173301 0.060000 0.045000
v -0.173301 0.310000 0.045000
v -0.155000 0.310000 0.026699
v -0.155000 0.060000 0.026699
v -0.155000 0.060000 0.026699
v -0.155000 0.310000 0.026699
v -0.130000 0.310000 0.020000
v -0.130000 0.060000 0.020000
v -0.130000 0.060000 0.020000
v -0.130000 0.310000 0.020000
v -0.105000 0.310000 0.026699
v -0.105000 0.060000 0.026699
v -0.105000 0.060000 0.026699
v -0.105000 0.310000 0.026699
v -0.086699 0.310000 0.045000
v -0.086699 0.060000 0.045000
v -0.086699 0.060000 0.045000
v -0.086699 0.310000 0.045000
v -0.080000 0.310000 0.070000
v -0.080000 0.060000 0.070000
v -0.130000 0.310000 0.070000
v -0.080000 0.310000 0.070000
v -0.086699 0.310000 0.095000
v -0.130000 0.060000 0.070000
v -0.086699 0.060000 0.095000
v -0.080000 0.060000 0.070000
v -0.130000 0.310000 0.070000
v -0.086699 0.310000 0.095000
v -0.105000 0.310000 0.113301
v -0.130000 0.060000 0.070000
v -0.105000 0.060000 0.113301
v -0.086699 0.060000 0.095000
v -0.130000 0.310000 0.070000
v -0.105000 0.310000 0.113301
v -0.130000 0.310000 0.120000
v -0.130000 0.060000 0.070000
v -0.130000 0.060000 0.120000
v -0.105000 0.060000 0.113301
v -0.130000 0.310000 0.070000
v -0.130000 0.310000 0.120000
v -0.155000 0.310000 0.113301
v -0.130000 0.060000 0.070000
v -0.155000 0.060000 0.113301
v -0.130000 0.060000 0.120000
v -0.130000 0.310000 0.070000
v -0.155000 0.310000 0.113301
v -0.173301 0.310000 0.095000
v -0.130000 0.060000 0.070000
v -0.173301 0.060000 0.095000
v -0.155000 0.060000 0.113301
v -0.130000 0.310000 0.070000
v -0.173301 0.310000 0.095000
v -0.180000 0.310000 0.070000
v -0.130000 0.060000 0.070000
v -0.180000 0.060000 0.070000
v -0.173301 0.060000 0.095000
v -0.130000 0.310000 0.070000
v -0.180000 0.310000 0.070000
v -0.173301 0.310000 0.045000
v -0.130000 0.060000 0.070000
v -0.173301 0.060000 0.045000
v -0.180000 0.060000 0.070000
v -0.130000 0.310000 0.070000
v -0.173301 0.310000 0.045000
v -0.155000 0.310000 0.026699
v -0.130000 0.060000 0.070000
v -0.155000 0.060000 0.026699
v -0.173301 0.060000 0.045000
v -0.130000 0.310000 0.070000
v -0.155000 0.310000 0.026699
v -0.130000 0.310000 0.020000
v -0.130000 0.060000 0.070000
v -0.130000 0.060000 0.020000
v -0.155000 0.060000 0.026699
v -0.130000 0.310000 0.070000
v -0.130000 0.310000 0.020000
v -0.105000 0.310000 0.026699
v -0.130000 0.060000 0.070000
v -0.105000 0.060000 0.026699
v -0.130000 0.060000 0.020000
v -0.130000 0.310000 0.070000
v -0.105000 0.310000 0.026699
v -0.086699 0.310000 0.045000
v -0.130000 0.060000 0.070000
v -0.086699 0.060000 0.045000
v -0.105000 0.060000 0.026699
v -0.130000 0.310000 0.070000
v -0.086699 0.310000 0.045000
v -0.080000 0.310000 0.070000
v -0.130000 0.060000 0.070000
v -0.080000 0.060000 0.070000
v -0.086699 0.060000 0.045000
v -0.030000 0.320000 -0.030000
v 0.030000 0.320000 -0.030000
v 0.030000 0.320000 0.030000
v -0.030000 0.320000 0.030000
v -0.030000 0.240000 0.030000
v 0.030000 0.240000 0.030000
v 0.030000 0.240000 -0.030000
v -0.030000 0.240000 -0.030000
v -0.030000 0.240000 0.030000
v -0.030000 0.320000 0.030000
v 0.030000 0.320000 0.030000
v 0.030000 0.240000 0.030000
v 0.030000 0.240000 -0.030000
v 0.030000 0.320000 -0.030000
v -0.030000 0.320000 -0.030000
v -0.030000 0.240000 -0.030000
v 0.030000 0.240000 0.030000
v 0.030000 0.320000 0.030000
v 0.030000 0.320000 -0.030000
v 0.030000 0.240000 -0.030000
v -0.030000 0.240000 -0.030000
v -0.030000 0.320000 -0.030000
v -0.030000 0.320000 0.030000
v -0.030000 0.240000 0.030000
v 0.090000 0.360000 0.050000
v 0.150000 0.360000 0.050000
v 0.150000 0.360000 0.110000
v 0.090000 0.360000 0.110000
v 0.090000 0.280000 0.110000
v 0.150000 0.280000 0.110000
v 0.150000 0.280000 0.050000
v 0.090000 0.280000 0.050000
v 0.090000 0.280000 0.110000
v 0.090000 0.360000 0.110000
v 0.150000 0.360000 0.110000
v 0.150000 0.280000 0.110000
v 0.150000 0.280000 0.050000
v 0.150000 0.360000 0.050000
v 0.090000 0.360000 0.050000
v 0.090000 0.280000 0.050000
v 0.150000 0.280000 0.110000
v 0.150000 0.360000 0.110000
v 0.150000 0.360000 0.050000
v 0.150000 0.280000 0.050000
v 0.090000 0.280000 0.050000
v 0.090000 0.360000 0.050000
v 0.090000 0.360000 0.110000
v 0.090000 0.280000 0.110000
v -0.160000 0.390000 0.040000
v -0.100000 0.390000 0.040000
v -0.100000 0.390000 0.100000
v -0.160000 0.390000 0.100000
v -0.160000 0.310000 0.100000
v -0.100000 0.310000 0.100000
v -0.100000 0.310000 0.040000
v -0.160000 0.310000 0.040000
v -0.160000 0.310000 0.100000
v -0.160000 0.390000 0.100000
v -0.100000 0.390000 0.100000
v -0.100000 0.310000 0.100000
v -0.100000 0.310000 0.040000
v -0.100000 0.390000 0.040000
v -0.160000 0.390000 0.040000
v -0.160000 0.310000 0.040000
v -0.100000 0.310000 0.100000
v -0.100000 0.390000 0.100000
v -0.100000 0.390000 0.040000
v -0.100000 0.310000 0.040000
v -0.160000 0.310000 0.040000
v -0.160000 0.390000 0.040000
v -0.160000 0.390000 0.100000
v -0.160000 0.310000 0.100000
vt 0.000000 0.000000
vt 0.000000 1.000000
vt 0.125000 1.000000
vt 0.125000 0.000000
vt 0.125000 0.000000
vt 0.125000 1.000000
vt 0.250000 1.000000
vt 0.250000 0.000000
vt 0.250000 0.000000
vt 0.250000 1.000000
vt 0.375000 1.000000
vt 0.375000 0.000000
vt 0.375000 0.000000
vt 0.375000 1.000000
vt 0.500000 1.000000
vt 0.500000 0.000000
vt 0.500000 0.000000
vt 0.500000 1.000000
vt 0.625000 1.000000
vt 0.625000 0.000000
vt 0.625000 0.000000
vt 0.625000 1.000000
vt 0.750000 1.000000
vt 0.750000 0.000000
vt 0.750000 0.000000
vt 0.750000 1.000000
vt 0.875000 1.000000
vt 0.875000 0.000000
vt 0.875000 0.000000
vt 0.875000 1.000000
vt 1.000000 1.000000
vt 1.000000 0.000000
vt 1.000000 0.000000
vt 1.000000 1.000000
vt 1.125000 1.000000
vt 1.125000 0.000000
vt 1.125000 0.000000
vt 1.125000 1.000000
vt 1.250000 1.000000
vt 1.250000 0.000000
vt 1.250000 0.000000
vt 1.250000 1.000000
vt 1.375000 1.000000
vt 1.375000 0.000000
vt 1.375000 0.000000
vt 1.375000 1.000000
vt 1.500000 1.000000
vt 1.500000 0.000000
vt 1.500000 0.000000
vt 1.500000 1.000000
vt 1.625000 1.000000
vt 1.625000 0.000000
vt 1.625000 0.000000
vt 1.625000 1.000000
vt 1.750000 1.000000
vt 1.750000 0.000000
vt 1.750000 0.000000
vt 1.750000 1.000000
vt 1.875000 1.000000
vt 1.875000 0.000000
vt 1.875000 0.000000
vt 1.875000 1.000000
vt 2.000000 1.000000
vt 2.000000 0.000000
vt 0.500000 0.500000
vt 1.000000 0.500000
vt 0.961940 0.691342
vt 0.500000 0.500000
vt 0.961940 0.691342
vt 0.853553 0.853553
vt 0.500000 0.500000
vt 0.853553 0.853553
vt 0.691342 0.961940
vt 0.500000 0.500000
vt 0.691342 0.961940
vt 0.500000 1.000000
vt 0.500000 0.500000
vt 0.500000 1.000000
vt 0.308658 0.961940
vt 0.500000 0.500000
vt 0.308658 0.961940
vt 0.146447 0.853553
vt 0.500000 0.500000
vt 0.146447 0.853553
vt 0.038060 0.691342
vt 0.500000 0.500000
vt 0.038060 0.691342
vt 0.000000 0.500000
vt 0.500000 0.500000
vt 0.000000 0.500000
vt 0.038060 0.308658
vt 0.500000 0.500000
vt 0.038060 0.308658
vt 0.146447 0.146447
vt 0.500000 0.500000
vt 0.146447 0.146447
vt 0.308658 0.038060
vt 0.500000 0.500000
vt 0.308658 0.038060
vt 0.500000 0.000000
vt 0.500000 0.500000
vt 0.500000 0.000000
vt 0.691342 0.038060
vt 0.500000 0.500000
vt 0.691342 0.038060
vt 0.853553 0.146447
vt 0.500000 0.500000
vt 0.853553 0.146447
vt 0.961940 0.308658
vt 0.500000 0.500000
vt 0.961940 0.308658
vt 1.000000 0.500000
vt 0.500000 0.500000
vt 0.961940 0.691342
vt 1.000000 0.500000
vt 0.500000 0.500000
vt 0.853553 0.853553
vt 0.961940 0.691342
vt 0.500000 0.500000
vt 0.691342 0.961940
vt 0.853553 0.853553
vt 0.500000 0.500000
vt 0.500000 1.000000
vt 0.691342 0.961940
vt 0.500000 0.500000
vt 0.308658 0.961940
vt 0.500000 1.000000
vt 0.500000 0.500000
vt 0.146447 0.853553
vt 0.308658 0.961940
vt 0.500000 0.500000
vt 0.038060 0.691342
vt 0.146447 0.853553
vt 0.500000 0.500000
vt 0.000000 0.500000
vt 0.038060 0.691342
vt 0.500000 0.500000
vt 0.038060 0.308658
vt 0.000000 0.500000
vt 0.500000 0.500000
vt 0.146447 0.146447
vt 0.038060 0.308658
vt 0.500000 0.500000
vt 0.308658 0.038060
vt 0.146447 0.146447
vt 0.500000 0.500000
vt 0.500000 0.000000
vt 0.308658 0.038060
vt 0.500000 0.500000
vt 0.691342 0.038060
vt 0.500000 0.000000
vt 0.500000 0.500000
vt 0.853553 0.146447
vt 0.691342 0.038060
vt 0.500000 0.500000
vt 0.961940 0.308658
vt 0.853553 0.146447
vt 0.500000 0.500000
vt 1.000000 0.500000
vt 0.961940 0.308658
vt 0.000000 0.000000
vt 0.000000 1.000000
vt 0.166667 1.000000
vt 0.166667 0.000000
vt 0.166667 0.000000
vt 0.166667 1.000000
vt 0.333333 1.000000
vt 0.333333 0.000000
vt 0.333333 0.000000
vt 0.333333 1.000000
vt 0.500000 1.000000
vt 0.500000 0.000000
vt 0.500000 0.000000
vt 0.500000 1.000000
vt 0.666667 1.000000
vt 0.666667 0.000000
vt 0.666667 0.000000
vt 0.666667 1.000000
vt 0.833333 1.000000
vt 0.833333 0.000000
vt 0.833333 0.000000
vt 0.833333 1.000000
vt 1.000000 1.000000
vt 1.000000 0.000000
vt 1.000000 0.000000
vt 1.000000 1.000000
vt 1.166667 1.000000
vt 1.166667 0.000000
vt 1.166667 0.000000
vt 1.166667 1.000000
vt 1.333333 1.000000
vt 1.333333 0.000000
vt 1.333333 0.000000
vt 1.333333 1.000000
vt 1.500000 1.000000
vt 1.500000 0.000000
vt 1.500000 0.000000
vt 1.500000 1.000000
vt 1.666667 1.000000
vt 1.666667 0.000000
vt 1.666667 0.000000
vt 1.666667 1.000000
vt 1.833333 1.000000
vt 1.833333 0.000000
vt 1.833333 0.000000
vt 1.833333 1.000000
vt 2.000000 1.000000
vt 2.000000 0.000000
vt 0.500000 0.500000
vt 1.000000 0.500000
vt 0.933013 0.750000
vt 0.500000 0.500000
vt 0.933013 0.750000
vt 0.750000 0.933013
vt 0.500000 0.500000
vt 0.750000 0.933013
vt 0.500000 1.000000
vt 0.500000 0.500000
vt 0.500000 1.000000
vt 0.250000 0.933013
vt 0.500000 0.500000
vt 0.250000 0.933013
vt 0.066987 0.750000
vt 0.500000 0.500000
vt 0.066987 0.750000
vt 0.000000 0.500000
vt 0.500000 0.500000
vt 0.000000 0.500000
vt 0.066987 0.250000
vt 0.500000 0.500000
vt 0.066987 0.250000
vt 0.250000 0.066987
vt 0.500000 0.500000
vt 0.250000 0.066987
vt 0.500000 0.000000
vt 0.500000 0.500000
vt 0.500000 0.000000
vt 0.750000 0.066987
vt 0.500000 0.500000
vt 0.750000 0.066987
vt 0.933013 0.250000
vt 0.500000 0.500000
vt 0.933013 0.250000
vt 1.000000 0.500000
vt 0.500000 0.500000
vt 0.933013 0.750000
vt 1.000000 0.500000
vt 0.500000 0.500000
vt 0.750000 0.933013
vt 0.933013 0.750000
vt 0.500000 0.500000
vt 0.500000 1.000000
vt 0.750000 0.933013
vt 0.500000 0.500000
vt 0.250000 0.933013
vt 0.500000 1.000000
vt 0.500000 0.500000
vt 0.066987 0.750000
vt 0.250000 0.933013
vt 0.500000 0.500000
vt 0.000000 0.500000
vt 0.066987 0.750000
vt 0.500000 0.500000
vt 0.066987 0.250000
vt 0.000000 0.500000
vt 0.500000 0.500000
vt 0.250000 0.066987
vt 0.066987 0.250000
vt 0.500000 0.500000
vt 0.500000 0.000000
vt 0.250000 0.066987
vt 0.500000 0.500000
vt 0.750000 0.066987
vt 0.500000 0.000000
vt 0.500000 0.500000
vt 0.933013 0.250000
vt 0.750000 0.066987
vt 0.500000 0.500000
vt 1.000000 0.500000
vt 0.933013 0.250000
vt 0.000000 0.000000
vt 0.000000 1.000000
vt 0.083333 1.000000
vt 0.083333 0.000000
vt 0.083333 0.000000
vt 0.083333 1.000000
vt 0.166667 1.000000
vt 0.166667 0.000000
vt 0.166667 0.000000
vt 0.166667 1.000000
vt 0.250000 1.000000
vt 0.250000 0.000000
vt 0.250000 0.000000
vt 0.250000 1.000000
vt 0.333333 1.000000
vt 0.333333 0.000000
vt 0.333333 0.000000
vt 0.333333 1.000000
vt 0.416667 1.000000
vt 0.416667 0.000000
vt 0.416667 0.000000
vt 0.416667 1.000000
vt 0.500000 1.000000
vt 0.500000 0.000000
vt 0.500000 0.000000
vt 0.500000 1.000000
vt 0.583333 1.000000
vt 0.583333 0.000000
vt 0.583333 0.000000
vt 0.583333 1.000000
vt 0.666667 1.000000
vt 0.666667 0.000000
vt 0.666667 0.000000
vt 0.666667 1.000000
vt 0.750000 1.000000
vt 0.750000 0.000000
vt 0.750000 0.000000
vt 0.750000 1.000000
vt 0.833333 1.000000
vt 0.833333 0.000000
vt 0.833333 0.000000
vt 0.833333 1.000000
vt 0.916667 1.000000
vt 0.916667 0.000000
vt 0.916667 0.000000
vt 0.916667 1.000000
vt 1.000000 1.000000
vt 1.000000 0.000000
vt 0.000000 0.000000
vt 1.000000 0.000000
vt 0.000000 1.000000
vt 0.000000 0.000000
vt 1.000000 0.000000
vt 0.000000 1.000000
vt 0.000000 0.000000
vt 1.000000 0.000000
vt 0.000000 1.000000
vt 0.000000 0.000000
vt 1.000000 0.000000
vt 0.000000 1.000000
vt 0.000000 0.000000
vt 1.000000 0.000000
vt 0.000000 1.000000
vt 0.000000 0.000000
vt 1.000000 0.000000
vt 0.000000 1.000000
vt 0.000000 0.000000
vt 1.000000 0.000000
vt 0.000000 1.000000
vt 0.000000 0.000000
vt 1.000000 0.000000
vt 0.000000 1.000000
vt 0.000000 0.000000
vt 1.000000 0.000000
vt 0.000000 1.000000
vt 0.000000 0.000000
vt 1.000000 0.000000
vt 0.000000 1.000000
vt 0.000000 0.000000
vt 1.000000 0.000000
vt 0.000000 1.000000
vt 0.000000 0.000000
vt 1.000000 0.000000
vt 0.000000 1.000000
vt 0.000000 0.000000
vt 1.000000 0.000000
vt 0.000000 1.000000
vt 0.000000 0.000000
vt 1.000000 0.000000
vt 0.000000 1.000000
vt 0.000000 0.000000
vt 1.000000 0.000000
vt 0.000000 1.000000
vt 0.000000 0.000000
vt 1.000000 0.000000
vt 0.000000 1.000000
vt 0.000000 0.000000
vt 1.000000 0.000000
vt 0.000000 1.000000
vt 0.000000 0.000000
vt 1.000000 0.000000
vt 0.000000 1.000000
vt 0.000000 0.000000
vt 1.000000 0.000000
vt 0.000000 1.000000
vt 0.000000 0.000000
vt 1.000000 0.000000
vt 0.000000 1.000000
vt 0.000000 0.000000
vt 1.000000 0.000000
vt 0.000000 1.000000
vt 0.000000 0.000000
vt 1.000000 0.000000
vt 0.000000 1.000000
vt 0.000000 0.000000
vt 1.000000 0.000000
vt 0.000000 1.000000
vt 0.000000 0.000000
vt 1.000000 0.000000
vt 0.000000 1.000000
vt 0.000000 0.000000
vt 0.000000 1.000000
vt 0.083333 1.000000
vt 0.083333 0.000000
vt 0.083333 0.000000
vt 0.083333 1.000000
vt 0.166667 1.000000
vt 0.166667 0.000000
vt 0.166667 0.000000
vt 0.166667 1.000000
vt 0.250000 1.000000
vt 0.250000 0.000000
vt 0.250000 0.000000
vt 0.250000 1.000000
vt 0.333333 1.000000
vt 0.333333 0.000000
vt 0.333333 0.000000
vt 0.333333 1.000000
vt 0.416667 1.000000
vt 0.416667 0.000000
vt 0.416667 0.000000
vt 0.416667 1.000000
vt 0.500000 1.000000
vt 0.500000 0.000000
vt 0.500000 0.000000
vt 0.500000 1.000000
vt 0.583333 1.000000
vt 0.583333 0.000000
vt 0.583333 0.000000
vt 0.583333 1.000000
vt 0.666667 1.000000
vt 0.666667 0.000000
vt 0.666667 0.000000
vt 0.666667 1.000000
vt 0.750000 1.000000
vt 0.750000 0.000000
vt 0.750000 0.000000
vt 0.750000 1.000000
vt 0.833333 1.000000
vt 0.833333 0.000000
vt 0.833333 0.000000
vt 0.833333 1.000000
vt 0.916667 1.000000
vt 0.916667 0.000000
vt 0.916667 0.000000
vt 0.916667 1.000000
vt 1.000000 1.000000
vt 1.000000 0.000000
vt 0.000000 0.000000
vt 1.000000 0.000000
vt 0.000000 1.000000
vt 0.000000 0.000000
vt 1.000000 0.000000
vt 0.000000 1.000000
vt 0.000000 0.000000
vt 1.000000 0.000000
vt 0.000000 1.000000
vt 0.000000 0.000000
vt 1.000000 0.000000
vt 0.000000 1.000000
vt 0.000000 0.000000
vt 1.000000 0.000000
vt 0.000000 1.000000
vt 0.000000 0.000000
vt 1.000000 0.000000
vt 0.000000 1.000000
vt 0.000000 0.000000
vt 1.000000 0.000000
vt 0.000000 1.000000
vt 0.000000 0.000000
vt 1.000000 0.000000
vt 0.000000 1.000000
vt 0.000000 0.000000
vt 1.000000 0.000000
vt 0.000000 1.000000
vt 0.000000 0.000000
vt 1.000000 0.000000
vt 0.000000 1.000000
vt 0.000000 0.000000
vt 1.000000 0.000000
vt 0.000000 1.000000
vt 0.000000 0.000000
vt 1.000000 0.000000
vt 0.000000 1.000000
vt 0.000000 0.000000
vt 1.000000 0.000000
vt 0.000000 1.000000
vt 0.000000 0.000000
vt 1.000000 0.000000
vt 0.000000 1.000000
vt 0.000000 0.000000
vt 1.000000 0.000000
vt 0.000000 1.000000
vt 0.000000 0.000000
vt 1.000000 0.000000
vt 0.000000 1.000000
vt 0.000000 0.000000
vt 1.000000 0.000000
vt 0.000000 1.000000
vt 0.000000 0.000000
vt 1.000000 0.000000
vt 0.000000 1.000000
vt 0.000000 0.000000
vt 1.000000 0.000000
vt 0.000000 1.000000
vt 0.000000 0.000000
vt 1.000000 0.000000
vt 0.000000 1.000000
vt 0.000000 0.000000
vt 1.000000 0.000000
vt 0.000000 1.000000
vt 0.000000 0.000000
vt 1.000000 0.000000
vt 0.000000 1.000000
vt 0.000000 0.000000
vt 1.000000 0.000000
vt 0.000000 1.000000
vt 0.000000 0.000000
vt 1.000000 0.000000
vt 0.000000 1.000000
vt 0.000000 0.000000
vt 1.000000 0.000000
vt 1.000000 1.000000
vt 0.000000 1.000000
vt 0.000000 0.000000
vt 1.000000 0.000000
vt 1.000000 1.000000
vt 0.000000 1.000000
vt 0.000000 0.000000
vt 1.000000 0.000000
vt 1.000000 1.000000
vt 0.000000 1.000000
vt 0.000000 0.000000
vt 1.000000 0.000000
vt 1.000000 1.000000
vt 0.000000 1.000000
vt 0.000000 0.000000
vt 1.000000 0.000000
vt 1.000000 1.000000
vt 0.000000 1.000000
vt 0.000000 0.000000
vt 1.000000 0.000000
vt 1.000000 1.000000
vt 0.000000 1.000000
vt 0.000000 0.000000
vt 1.000000 0.000000
vt 1.000000 1.000000
vt 0.000000 1.000000
vt 0.000000 0.000000
vt 1.000000 0.000000
vt 1.000000 1.000000
vt 0.000000 1.000000
vt 0.000000 0.000000
vt 1.000000 0.000000
vt 1.000000 1.000000
vt 0.000000 1.000000
vt 0.000000 0.000000
vt 1.000000 0.000000
vt 1.000000 1.000000
vt 0.000000 1.000000
vt 0.000000 0.000000
vt 1.000000 0.000000
vt 1.000000 1.000000
vt 0.000000 1.000000
vt 0.000000 0.000000
vt 1.000000 0.000000
vt 1.000000 1.000000
vt 0.000000 1.000000
vt 0.000000 0.000000
vt 1.000000 0.000000
vt 1.000000 1.000000
vt 0.000000 1.000000
vt 0.000000 0.000000
vt 1.000000 0.000000
vt 1.000000 1.000000
vt 0.000000 1.000000
vt 0.000000 0.000000
vt 1.000000 0.000000
vt 1.000000 1.000000
vt 0.000000 1.000000
vt 0.000000 0.000000
vt 1.000000 0.000000
vt 1.000000 1.000000
vt 0.000000 1.000000
vt 0.000000 0.000000
vt 1.000000 0.000000
vt 1.000000 1.000000
vt 0.000000 1.000000
vt 0.000000 0.000000
vt 1.000000 0.000000
vt 1.000000 1.000000
vt 0.000000 1.000000
vn 1.000000 0.000000 0.000000
vn 1.000000 0.000000 0.000000
vn 0.923880 0.000000 0.382683
vn 0.923880 0.000000 0.382683
vn 0.923880 0.000000 0.382683
vn 0.923880 0.000000 0.382683
vn 0.707107 0.000000 0.707107
vn 0.707107 0.000000 0.707107
vn 0.707107 0.000000 0.707107
vn 0.707107 0.000000 0.707107
vn 0.382683 0.000000 0.923880
vn 0.382683 0.000000 0.923880
vn 0.382683 0.000000 0.923880
vn 0.382683 0.000000 0.923880
vn 0.000000 0.000000 1.000000
vn 0.000000 0.000000 1.000000
vn 0.000000 0.000000 1.000000
vn 0.000000 0.000000 1.000000
vn -0.382683 0.000000 0.923880
vn -0.382683 0.000000 0.923880
vn -0.382683 0.000000 0.923880
vn -0.382683 0.000000 0.923880
vn -0.707107 0.000000 0.707107
vn -0.707107 0.000000 0.707107
vn -0.707107 0.000000 0.707107
vn -0.707107 0.000000 0.707107
vn -0.923880 0.000000 0.382683
vn -0.923880 0.000000 0.382683
vn -0.923880 0.000000 0.382683
vn -0.923880 0.000000 0.382683
vn -1.000000 0.000000 0.000000
vn -1.000000 0.000000 0.000000
vn -1.000000 0.000000 0.000000
vn -1.000000 0.000000 0.000000
vn -0.923880 0.000000 -0.382683
vn -0.923880 0.000000 -0.382683
vn -0.923880 0.000000 -0.382683
vn -0.923880 0.000000 -0.382683
vn -0.707107 0.000000 -0.707107
vn -0.707107 0.000000 -0.707107
vn -0.707107 0.000000 -0.707107
vn -0.707107 0.000000 -0.707107
vn -0.382683 0.000000 -0.923880
vn -0.382683 0.000000 -0.923880
vn -0.382683 0.000000 -0.923880
vn -0.382683 0.000000 -0.923880
vn -0.000000 0.000000 -1.000000
vn -0.000000 0.000000 -1.000000
vn -0.000000 0.000000 -1.000000
vn -0.000000 0.000000 -1.000000
vn 0.382683 0.000000 -0.923880
vn 0.382683 0.000000 -0.923880
vn 0.382683 0.000000 -0.923880
vn 0.382683 0.000000 -0.923880
vn 0.707107 0.000000 -0.707107
vn 0.707107 0.000000 -0.707107
vn 0.707107 0.000000 -0.707107
vn 0.707107 0.000000 -0.707107
vn 0.923880 0.000000 -0.382683
vn 0.923880 0.000000 -0.382683
vn 0.923880 0.000000 -0.382683
vn 0.923880 0.000000 -0.382683
vn 1.000000 0.000000 -0.000000
vn 1.000000 0.000000 -0.000000
vn 0.000000 1.000000 0.000000
vn 0.000000 1.000000 0.000000
vn 0.000000 1.000000 0.000000
vn 0.000000 1.000000 0.000000
vn 0.000000 1.000000 0.000000
vn 0.000000 1.000000 0.000000
vn 0.000000 1.000000 0.000000
vn 0.000000 1.000000 0.000000
vn 0.000000 1.000000 0.000000
vn 0.000000 1.000000 0.000000
vn 0.000000 1.000000 0.000000
vn 0.000000 1.000000 0.000000
vn 0.000000 1.000000 0.000000
vn 0.000000 1.000000 0.000000
vn 0.000000 1.000000 0.000000
vn 0.000000 1.000000 0.000000
vn 0.000000 1.000000 0.000000
vn 0.000000 1.000000 0.000000
vn 0.000000 1.000000 0.000000
vn 0.000000 1.000000 0.000000
vn 0.000000 1.000000 0.000000
vn 0.000000 1.000000 0.000000
vn 0.000000 1.000000 0.000000
vn 0.000000 1.000000 0.000000
vn 0.000000 1.000000 0.000000
vn 0.000000 1.000000 0.000000
vn 0.000000 1.000000 0.000000
vn 0.000000 1.000000 0.000000
vn 0.000000 1.000000 0.000000
vn 0.000000 1.000000 0.000000
vn 0.000000 1.000000 0.000000
vn 0.000000 1.000000 0.000000
vn 0.000000 1.000000 0.000000
vn 0.000000 1.000000 0.000000
vn 0.000000 1.000000 0.000000
vn 0.000000 1.000000 0.000000
vn 0.000000 1.000000 0.000000
vn 0.000000 1.000000 0.000000
vn 0.000000 1.000000 0.000000
vn 0.000000 1.000000 0.000000
vn 0.000000 1.000000 0.000000
vn 0.000000 1.000000 0.000000
vn 0.000000 1.000000 0.000000
vn 0.000000 1.000000 0.000000
vn 0.000000 1.000000 0.000000
vn 0.000000 1.000000 0.000000
vn 0.000000 1.000000 0.000000
vn 0.000000 1.000000 0.000000
vn 0.000000 -1.000000 0.000000
vn 0.000000 -1.000000 0.000000
vn 0.000000 -1.000000 0.000000
vn 0.000000 -1.000000 0.000000
vn 0.000000 -1.000000 0.000000
vn 0.000000 -1.000000 0.000000
vn 0.000000 -1.000000 0.000000
vn 0.000000 -1.000000 0.000000
vn 0.000000 -1.000000 0.000000
vn 0.000000 -1.000000 0.000000
vn 0.000000 -1.000000 0.000000
vn 0.000000 -1.000000 0.000000
vn 0.000000 -1.000000 0.000000
vn 0.000000 -1.000000 0.000000
vn 0.000000 -1.000000 0.000000
vn 0.000000 -1.000000 0.000000
vn 0.000000 -1.000000 0.000000
vn 0.000000 -1.000000 0.000000
vn 0.000000 -1.000000 0.000000
vn 0.000000 -1.000000 0.000000
vn 0.000000 -1.000000 0.000000
vn 0.000000 -1.000000 0.000000
vn 0.000000 -1.000000 0.000000
vn 0.000000 -1.000000 0.000000
vn 0.000000 -1.000000 0.000000
vn 0.000000 -1.000000 0.000000
vn 0.000000 -1.000000 0.000000
vn 0.000000 -1.000000 0.000000
vn 0.000000 -1.000000 0.000000
vn 0.000000 -1.000000 0.000000
vn 0.000000 -1.000000 0.000000
vn 0.000000 -1.000000 0.000000
vn 0.000000 -1.000000 0.000000
vn 0.000000 -1.000000 0.000000
vn 0.000000 -1.000000 0.000000
vn 0.000000 -1.000000 0.000000
vn 0.000000 -1.000000 0.000000
vn 0.000000 -1.000000 0.000000
vn 0.000000 -1.000000 0.000000
vn 0.000000 -1.000000 0.000000
vn 0.000000 -1.000000 0.000000
vn 0.000000 -1.000000 0.000000
vn 0.000000 -1.000000 0.000000
vn 0.000000 -1.000000 0.000000
vn 0.000000 -1.000000 0.000000
vn 0.000000 -1.000000 0.000000
vn 0.000000 -1.000000 0.000000
vn 0.000000 -1.000000 0.000000
vn 1.000000 0.000000 0.000000
vn 1.000000 0.000000 0.000000
vn 0.866025 0.000000 0.500000
vn 0.866025 0.000000 0.500000
vn 0.866025 0.000000 0.500000
vn 0.866025 0.000000 0.500000
vn 0.500000 0.000000 0.866025
vn 0.500000 0.000000 0.866025
vn 0.500000 0.000000 0.866025
vn 0.500000 0.000000 0.866025
vn 0.000000 0.000000 1.000000
vn 0.000000 0.000000 1.000000
vn 0.000000 0.000000 1.000000
vn 0.000000 0.000000 1.000000
vn -0.500000 0.000000 0.866025
vn -0.500000 0.000000 0.866025
vn -0.500000 0.000000 0.866025
vn -0.500000 0.000000 0.866025
vn -0.866025 0.000000 0.500000
vn -0.866025 0.000000 0.500000
vn -0.866025 0.000000 0.500000
vn -0.866025 0.000000 0.500000
vn -1.000000 0.000000 0.000000
vn -1.000000 0.000000 0.000000
vn -1.000000 0.000000 0.000000
vn -1.000000 0.000000 0.000000
vn -0.866025 0.000000 -0.500000
vn -0.866025 0.000000 -0.500000
vn -0.866025 0.000000 -0.500000
vn -0.866025 0.000000 -0.500000
vn -0.500000 0.000000 -0.866025
vn -0.500000 0.000000 -0.866025
vn -0.500000 0.000000 -0.866025
vn -0.500000 0.000000 -0.866025
vn -0.000000 0.000000 -1.000000
vn -0.000000 0.000000 -1.000000
vn -0.000000 0.000000 -1.000000
vn -0.000000 0.000000 -1.000000
vn 0.500000 0.000000 -0.866025
vn 0.500000 0.000000 -0.866025
vn 0.500000 0.000000 -0.866025
vn 0.500000 0.000000 -0.866025
vn 0.866025 0.000000 -0.500000
vn 0.866025 0.000000 -0.500000
vn 0.866025 0.000000 -0.500000
vn 0.866025 0.000000 -0.500000
vn 1.000000 0.000000 -0.000000
vn 1.000000 0.000000 -0.000000
vn 0.000000 1.000000 0.000000
vn 0.000000 1.000000 0.000000
vn 0.000000 1.000000 0.000000
vn 0.000000 1.000000 0.000000
vn 0.000000 1.000000 0.000000
vn 0.000000 1.000000 0.000000
vn 0.000000 1.000000 0.000000
vn 0.000000 1.000000 0.000000
vn 0.000000 1.000000 0.000000
vn 0.000000 1.000000 0.000000
vn 0.000000 1.000000 0.000000
vn 0.000000 1.000000 0.000000
vn 0.000000 1.000000 0.000000
vn 0.000000 1.000000 0.000000
vn 0.000000 1.000000 0.000000
vn 0.000000 1.000000 0.000000
vn 0.000000 1.000000 0.000000
vn 0.000000 1.000000 0.000000
vn 0.000000 1.000000 0.000000
vn 0.000000 1.000000 0.000000
vn 0.000000 1.000000 0.000000
vn 0.000000 1.000000 0.000000
vn 0.000000 1.000000 0.000000
vn 0.000000 1.000000 0.000000
vn 0.000000 1.000000 0.000000
vn 0.000000 1.000000 0.000000
vn 0.000000 1.000000 0.000000
vn 0.000000 1.000000 0.000000
vn 0.000000 1.000000 0.000000
vn 0.000000 1.000000 0.000000
vn 0.000000 1.000000 0.000000
vn 0.000000 1.000000 0.000000
vn 0.000000 1.000000 0.000000
vn 0.000000 1.000000 0.000000
vn 0.000000 1.000000 0.000000
vn 0.000000 1.000000 0.000000
vn 0.000000 -1.000000 0.000000
vn 0.000000 -1.000000 0.000000
vn 0.000000 -1.000000 0.000000
vn 0.000000 -1.000000 0.000000
vn 0.000000 -1.000000 0.000000
vn 0.000000 -1.000000 0.000000
vn 0.000000 -1.000000 0.000000
vn 0.000000 -1.000000 0.000000
vn 0.000000 -1.000000 0.000000
vn 0.000000 -1.000000 0.000000
vn 0.000000 -1.000000 0.000000
vn 0.000000 -1.000000 0.000000
vn 0.000000 -1.000000 0.000000
vn 0.000000 -1.000000 0.000000
vn 0.000000 -1.000000 0.000000
vn 0.000000 -1.000000 0.000000
vn 0.000000 -1.000000 0.000000
vn 0.000000 -1.000000 0.000000
vn 0.000000 -1.000000 0.000000
vn 0.000000 -1.000000 0.000000
vn 0.000000 -1.000000 0.000000
vn 0.000000 -1.000000 0.000000
vn 0.000000 -1.000000 0.000000
vn 0.000000 -1.000000 0.000000
vn 0.000000 -1.000000 0.000000
vn 0.000000 -1.000000 0.000000
vn 0.000000 -1.000000 0.000000
vn 0.000000 -1.000000 0.000000
vn 0.000000 -1.000000 0.000000
vn 0.000000 -1.000000 0.000000
vn 0.000000 -1.000000 0.000000
vn 0.000000 -1.000000 0.000000
vn 0.000000 -1.000000 0.000000
vn 0.000000 -1.000000 0.000000
vn 0.000000 -1.000000 0.000000
vn 0.000000 -1.000000 0.000000
vn 1.000000 0.000000 0.000000
vn 1.000000 0.000000 0.000000
vn 0.866025 0.000000 0.500000
vn 0.866025 0.000000 0.500000
vn 0.866025 0.000000 0.500000
vn 0.866025 0.000000 0.500000
vn 0.500000 0.000000 0.866025
vn 0.500000 0.000000 0.866025
vn 0.500000 0.000000 0.866025
vn 0.500000 0.000000 0.866025
vn 0.000000 0.000000 1.000000
vn 0.000000 0.000000 1.000000
vn 0.000000 0.000000 1.000000
vn 0.000000 0.000000 1.000000
vn -0.500000 0.000000 0.866025
vn -0.500000 0.000000 0.866025
vn -0.500000 0.000000 0.866025
vn -0.500000 0.000000 0.866025
vn -0.866025 0.000000 0.500000
vn -0.866025 0.000000 0.500000
vn -0.866025 0.000000 0.500000
vn -0.866025 0.000000 0.500000
vn -1.000000 0.000000 0.000000
vn -1.000000 0.000000 0.000000
vn -1.000000 0.000000 0.000000
vn -1.000000 0.000000 0.000000
vn -0.866025 0.000000 -0.500000
vn -0.866025 0.000000 -0.500000
vn -0.866025 0.000000 -0.500000
vn -0.866025 0.000000 -0.500000
vn -0.500000 0.000000 -0.866025
vn -0.500000 0.000000 -0.866025
vn -0.500000 0.000000 -0.866025
vn -0.500000 0.000000 -0.866025
vn -0.000000 0.000000 -1.000000
vn -0.000000 0.000000 -1.000000
vn -0.000000 0.000000 -1.000000
vn -0.000000 0.000000 -1.000000
vn 0.500000 0.000000 -0.866025
vn 0.500000 0.000000 -0.866025
vn 0.500000 0.000000 -0.866025
vn 0.500000 0.000000 -0.866025
vn 0.866025 0.000000 -0.500000
vn 0.866025 0.000000 -0.500000
vn 0.866025 0.000000 -0.500000
vn 0.866025 0.000000 -0.500000
vn 1.000000 0.000000 -0.000000
vn 1.000000 0.000000 -0.000000
vn 0.000000 1.000000 0.000000
vn 0.000000 1.000000 0.000000
vn 0.000000 1.000000 0.000000
vn 0.000000 -1.000000 0.000000
vn 0.000000 -1.000000 0.000000
vn 0.000000 -1.000000 0.000000
vn 0.000000 1.000000 0.000000
vn 0.000000 1.000000 0.000000
vn 0.000000 1.000000 0.000000
vn 0.000000 -1.000000 0.000000
vn 0.000000 -1.000000 0.000000
vn 0.000000 -1.000000 0.000000
vn 0.000000 1.000000 0.000000
vn 0.000000 1.000000 0.000000
vn 0.000000 1.000000 0.000000
vn 0.000000 -1.000000 0.000000
vn 0.000000 -1.000000 0.000000
vn 0.000000 -1.000000 0.000000
vn 0.000000 1.000000 0.000000
vn 0.000000 1.000000 0.000000
vn 0.000000 1.000000 0.000000
vn 0.000000 -1.000000 0.000000
vn 0.000000 -1.000000 0.000000
vn 0.000000 -1.000000 0.000000
vn 0.000000 1.000000 0.000000
vn 0.000000 1.000000 0.000000
vn 0.000000 1.000000 0.000000
vn 0.000000 -1.000000 0.000000
vn 0.000000 -1.000000 0.000000
vn 0.000000 -1.000000 0.000000
vn 0.000000 1.000000 0.000000
vn 0.000000 1.000000 0.000000
vn 0.000000 1.000000 0.000000
vn 0.000000 -1.000000 0.000000
vn 0.000000 -1.000000 0.000000
vn 0.000000 -1.000000 0.000000
vn 0.000000 1.000000 0.000000
vn 0.000000 1.000000 0.000000
vn 0.000000 1.000000 0.000000
vn 0.000000 -1.000000 0.000000
vn 0.000000 -1.000000 0.000000
vn 0.000000 -1.000000 0.000000
vn 0.000000 1.000000 0.000000
vn 0.000000 1.000000 0.000000
vn 0.000000 1.000000 0.000000
vn 0.000000 -1.000000 0.000000
vn 0.000000 -1.000000 0.000000
vn 0.000000 -1.000000 0.000000
vn 0.000000 1.000000 0.000000
vn 0.000000 1.000000 0.000000
vn 0.000000 1.000000 0.000000
vn 0.000000 -1.000000 0.000000
vn 0.000000 -1.000000 0.000000
vn 0.000000 -1.000000 0.000000
vn 0.000000 1.000000 0.000000
vn 0.000000 1.000000 0.000000
vn 0.000000 1.000000 0.000000
vn 0.000000 -1.000000 0.000000
vn 0.000000 -1.000000 0.000000
vn 0.000000 -1.000000 0.000000
vn 0.000000 1.000000 0.000000
vn 0.000000 1.000000 0.000000
vn 0.000000 1.000000 0.000000
vn 0.000000 -1.000000 0.000000
vn 0.000000 -1.000000 0.000000
vn 0.000000 -1.000000 0.000000
vn 0.000000 1.000000 0.000000
vn 0.000000 1.000000 0.000000
vn 0.000000 1.000000 0.000000
vn 0.000000 -1.000000 0.000000
vn 0.000000 -1.000000 0.000000
vn 0.000000 -1.000000 0.000000
vn 1.000000 0.000000 0.000000
vn 1.000000 0.000000 0.000000
vn 0.866025 0.000000 0.500000
vn 0.866025 0.000000 0.500000
vn 0.866025 0.000000 0.500000
vn 0.866025 0.000000 0.500000
vn 0.500000 0.000000 0.866025
vn 0.500000 0.000000 0.866025
vn 0.500000 0.000000 0.866025
vn 0.500000 0.000000 0.866025
vn 0.000000 0.000000 1.000000
vn 0.000000 0.000000 1.000000
vn 0.000000 0.000000 1.000000
vn 0.000000 0.000000 1.000000
vn -0.500000 0.000000 0.866025
vn -0.500000 0.000000 0.866025
vn -0.500000 0.000000 0.866025
vn -0.500000 0.000000 0.866025
vn -0.866025 0.000000 0.500000
vn -0.866025 0.000000 0.500000
vn -0.866025 0.000000 0.500000
vn -0.866025 0.000000 0.500000
vn -1.000000 0.000000 0.000000
vn -1.000000 0.000000 0.000000
vn -1.000000 0.000000 0.000000
vn -1.000000 0.000000 0.000000
vn -0.866025 0.000000 -0.500000
vn -0.866025 0.000000 -0.500000
vn -0.866025 0.000000 -0.500000
vn -0.866025 0.000000 -0.500000
vn -0.500000 0.000000 -0.866025
vn -0.500000 0.000000 -0.866025
vn -0.500000 0.000000 -0.866025
vn -0.500000 0.000000 -0.866025
vn -0.000000 0.000000 -1.000000
vn -0.000000 0.000000 -1.000000
vn -0.000000 0.000000 -1.000000
vn -0.000000 0.000000 -1.000000
vn 0.500000 0.000000 -0.866025
vn 0.500000 0.000000 -0.866025
vn 0.500000 0.000000 -0.866025
vn 0.500000 0.000000 -0.866025
vn 0.866025 0.000000 -0.500000
vn 0.866025 0.000000 -0.500000
vn 0.866025 0.000000 -0.500000
vn 0.866025 0.000000 -0.500000
vn 1.000000 0.000000 -0.000000
vn 1.000000 0.000000 -0.000000
vn 0.000000 1.000000 0.000000
vn 0.000000 1.000000 0.000000
vn 0.000000 1.000000 0.000000
vn 0.000000 -1.000000 0.000000
vn 0.000000 -1.000000 0.000000
vn 0.000000 -1.000000 0.000000
vn 0.000000 1.000000 0.000000
vn 0.000000 1.000000 0.000000
vn 0.000000 1.000000 0.000000
vn 0.000000 -1.000000 0.000000
vn 0.000000 -1.000000 0.000000
vn 0.000000 -1.000000 0.000000
vn 0.000000 1.000000 0.000000
vn 0.000000 1.000000 0.000000
vn 0.000000 1.000000 0.000000
vn 0.000000 -1.000000 0.000000
vn 0.000000 -1.000000 0.000000
vn 0.000000 -1.000000 0.000000
vn 0.000000 1.000000 0.000000
vn 0.000000 1.000000 0.000000
vn 0.000000 1.000000 0.000000
vn 0.000000 -1.000000 0.000000
vn 0.000000 -1.000000 0.000000
vn 0.000000 -1.000000 0.000000
vn 0.000000 1.000000 0.000000
vn 0.000000 1.000000 0.000000
vn 0.000000 1.000000 0.000000
vn 0.000000 -1.000000 0.000000
vn 0.000000 -1.000000 0.000000
vn 0.000000 -1.000000 0.000000
vn 0.000000 1.000000 0.000000
vn 0.000000 1.000000 0.000000
vn 0.000000 1.000000 0.000000
vn 0.000000 -1.000000 0.000000
vn 0.000000 -1.000000 0.000000
vn 0.000000 -1.000000 0.000000
vn 0.000000 1.000000 0.000000
vn 0.000000 1.000000 0.000000
vn 0.000000 1.000000 0.000000
vn 0.000000 -1.000000 0.000000
vn 0.000000 -1.000000 0.000000
vn 0.000000 -1.000000 0.000000
vn 0.000000 1.000000 0.000000
vn 0.000000 1.000000 0.000000
vn 0.000000 1.000000 0.000000
vn 0.000000 -1.000000 0.000000
vn 0.000000 -1.000000 0.000000
vn 0.000000 -1.000000 0.000000
vn 0.000000 1.000000 0.000000
vn 0.000000 1.000000 0.000000
vn 0.000000 1.000000 0.000000
vn 0.000000 -1.000000 0.000000
vn 0.000000 -1.000000 0.000000
vn 0.000000 -1.000000 0.000000
vn 0.000000 1.000000 0.000000
vn 0.000000 1.000000 0.000000
vn 0.000000 1.000000 0.000000
vn 0.000000 -1.000000 0.000000
vn 0.000000 -1.000000 0.000000
vn 0.000000 -1.000000 0.000000
vn 0.000000 1.000000 0.000000
vn 0.000000 1.000000 0.000000
vn 0.000000 1.000000 0.000000
vn 0.000000 -1.000000 0.000000
vn 0.000000 -1.000000 0.000000
vn 0.000000 -1.000000 0.000000
vn 0.000000 1.000000 0.000000
vn 0.000000 1.000000 0.000000
vn 0.000000 1.000000 0.000000
vn 0.000000 -1.000000 0.000000
vn 0.000000 -1.000000 0.000000
vn 0.000000 -1.000000 0.000000
vn 0.000000 1.000000 0.000000
vn 0.000000 1.000000 0.000000
vn 0.000000 1.000000 0.000000
vn 0.000000 1.000000 0.000000
vn 0.000000 -1.000000 0.000000
vn 0.000000 -1.000000 0.000000
vn 0.000000 -1.000000 0.000000
vn 0.000000 -1.000000 0.000000
vn 0.000000 0.000000 1.000000
vn 0.000000 0.000000 1.000000
vn 0.000000 0.000000 1.000000
vn 0.000000 0.000000 1.000000
vn 0.000000 0.000000 -1.000000
vn 0.000000 0.000000 -1.000000
vn 0.000000 0.000000 -1.000000
vn 0.000000 0.000000 -1.000000
vn 1.000000 0.000000 0.000000
vn 1.000000 0.000000 0.000000
vn 1.000000 0.000000 0.000000
vn 1.000000 0.000000 0.000000
vn -1.000000 0.000000 0.000000
vn -1.000000 0.000000 0.000000
vn -1.000000 0.000000 0.000000
vn -1.000000 0.000000 0.000000
vn 0.000000 1.000000 0.000000
vn 0.000000 1.000000 0.000000
vn 0.000000 1.000000 0.000000
vn 0.000000 1.000000 0.000000
vn 0.000000 -1.000000 0.000000
vn 0.000000 -1.000000 0.000000
vn 0.000000 -1.000000 0.000000
vn 0.000000 -1.000000 0.000000
vn 0.000000 0.000000 1.000000
vn 0.000000 0.000000 1.000000
vn 0.000000 0.000000 1.000000
vn 0.000000 0.000000 1.000000
vn 0.000000 0.000000 -1.000000
vn 0.000000 0.000000 -1.000000
vn 0.000000 0.000000 -1.000000
vn 0.000000 0.000000 -1.000000
vn 1.000000 0.000000 0.000000
vn 1.000000 0.000000 0.000000
vn 1.000000 0.000000 0.000000
vn 1.000000 0.000000 0.000000
vn -1.000000 0.000000 0.000000
vn -1.000000 0.000000 0.000000
vn -1.000000 0.000000 0.000000
vn -1.000000 0.000000 0.000000
vn 0.000000 1.000000 0.000000
vn 0.000000 1.000000 0.000000
vn 0.000000 1.000000 0.000000
vn 0.000000 1.000000 0.000000
vn 0.000000 -1.000000 0.000000
vn 0.000000 -1.000000 0.000000
vn 0.000000 -1.000000 0.000000
vn 0.000000 -1.000000 0.000000
vn 0.000000 0.000000 1.000000
vn 0.000000 0.000000 1.000000
vn 0.000000 0.000000 1.000000
vn 0.000000 0.000000 1.000000
vn 0.000000 0.000000 -1.000000
vn 0.000000 0.000000 -1.000000
vn 0.000000 0.000000 -1.000000
vn 0.000000 0.000000 -1.000000
vn 1.000000 0.000000 0.000000
vn 1.000000 0.000000 0.000000
vn 1.000000 0.000000 0.000000
vn 1.000000 0.000000 0.000000
vn -1.000000 0.000000 0.000000
vn -1.000000 0.000000 0.000000
vn -1.000000 0.000000 0.000000
vn -1.000000 0.000000 0.000000
usemtl M_Arena_Brazier_Metal
f 1/1/1 2/2/2 3/3/3 4/4/4
f 5/5/5 6/6/6 7/7/7 8/8/8
f 9/9/9 10/10/10 11/11/11 12/12/12
f 13/13/13 14/14/14 15/15/15 16/16/16
f 17/17/17 18/18/18 19/19/19 20/20/20
f 21/21/21 22/22/22 23/23/23 24/24/24
f 25/25/25 26/26/26 27/27/27 28/28/28
f 29/29/29 30/30/30 31/31/31 32/32/32
f 33/33/33 34/34/34 35/35/35 36/36/36
f 37/37/37 38/38/38 39/39/39 40/40/40
f 41/41/41 42/42/42 43/43/43 44/44/44
f 45/45/45 46/46/46 47/47/47 48/48/48
f 49/49/49 50/50/50 51/51/51 52/52/52
f 53/53/53 54/54/54 55/55/55 56/56/56
f 57/57/57 58/58/58 59/59/59 60/60/60
f 61/61/61 62/62/62 63/63/63 64/64/64
f 65/65/65 66/66/66 67/67/67
f 68/68/68 69/69/69 70/70/70
f 71/71/71 72/72/72 73/73/73
f 74/74/74 75/75/75 76/76/76
f 77/77/77 78/78/78 79/79/79
f 80/80/80 81/81/81 82/82/82
f 83/83/83 84/84/84 85/85/85
f 86/86/86 87/87/87 88/88/88
f 89/89/89 90/90/90 91/91/91
f 92/92/92 93/93/93 94/94/94
f 95/95/95 96/96/96 97/97/97
f 98/98/98 99/99/99 100/100/100
f 101/101/101 102/102/102 103/103/103
f 104/104/104 105/105/105 106/106/106
f 107/107/107 108/108/108 109/109/109
f 110/110/110 111/111/111 112/112/112
f 113/113/113 114/114/114 115/115/115
f 116/116/116 117/117/117 118/118/118
f 119/119/119 120/120/120 121/121/121
f 122/122/122 123/123/123 124/124/124
f 125/125/125 126/126/126 127/127/127
f 128/128/128 129/129/129 130/130/130
f 131/131/131 132/132/132 133/133/133
f 134/134/134 135/135/135 136/136/136
f 137/137/137 138/138/138 139/139/139
f 140/140/140 141/141/141 142/142/142
f 143/143/143 144/144/144 145/145/145
f 146/146/146 147/147/147 148/148/148
f 149/149/149 150/150/150 151/151/151
f 152/152/152 153/153/153 154/154/154
f 155/155/155 156/156/156 157/157/157
f 158/158/158 159/159/159 160/160/160
usemtl M_Arena_Candle_Wax
f 161/161/161 162/162/162 163/163/163 164/164/164
f 165/165/165 166/166/166 167/167/167 168/168/168
f 169/169/169 170/170/170 171/171/171 172/172/172
f 173/173/173 174/174/174 175/175/175 176/176/176
f 177/177/177 178/178/178 179/179/179 180/180/180
f 181/181/181 182/182/182 183/183/183 184/184/184
f 185/185/185 186/186/186 187/187/187 188/188/188
f 189/189/189 190/190/190 191/191/191 192/192/192
f 193/193/193 194/194/194 195/195/195 196/196/196
f 197/197/197 198/198/198 199/199/199 200/200/200
f 201/201/201 202/202/202 203/203/203 204/204/204
f 205/205/205 206/206/206 207/207/207 208/208/208
f 209/209/209 210/210/210 211/211/211
f 212/212/212 213/213/213 214/214/214
f 215/215/215 216/216/216 217/217/217
f 218/218/218 219/219/219 220/220/220
f 221/221/221 222/222/222 223/223/223
f 224/224/224 225/225/225 226/226/226
f 227/227/227 228/228/228 229/229/229
f 230/230/230 231/231/231 232/232/232
f 233/233/233 234/234/234 235/235/235
f 236/236/236 237/237/237 238/238/238
f 239/239/239 240/240/240 241/241/241
f 242/242/242 243/243/243 244/244/244
f 245/245/245 246/246/246 247/247/247
f 248/248/248 249/249/249 250/250/250
f 251/251/251 252/252/252 253/253/253
f 254/254/254 255/255/255 256/256/256
f 257/257/257 258/258/258 259/259/259
f 260/260/260 261/261/261 262/262/262
f 263/263/263 264/264/264 265/265/265
f 266/266/266 267/267/267 268/268/268
f 269/269/269 270/270/270 271/271/271
f 272/272/272 273/273/273 274/274/274
f 275/275/275 276/276/276 277/277/277
f 278/278/278 279/279/279 280/280/280
f 281/281/281 282/282/282 283/283/283 284/284/284
f 285/285/285 286/286/286 287/287/287 288/288/288
f 289/289/289 290/290/290 291/291/291 292/292/292
f 293/293/293 294/294/294 295/295/295 296/296/296
f 297/297/297 298/298/298 299/299/299 300/300/300
f 301/301/301 302/302/302 303/303/303 304/304/304
f 305/305/305 306/306/306 307/307/307 308/308/308
f 309/309/309 310/310/310 311/311/311 312/312/312
f 313/313/313 314/314/314 315/315/315 316/316/316
f 317/317/317 318/318/318 319/319/319 320/320/320
f 321/321/321 322/322/322 323/323/323 324/324/324
f 325/325/325 326/326/326 327/327/327 328/328/328
f 329/329/329 330/330/330 331/331/331
f 332/332/332 333/333/333 334/334/334
f 335/335/335 336/336/336 337/337/337
f 338/338/338 339/339/339 340/340/340
f 341/341/341 342/342/342 343/343/343
f 344/344/344 345/345/345 346/346/346
f 347/347/347 348/348/348 349/349/349
f 350/350/350 351/351/351 352/352/352
f 353/353/353 354/354/354 355/355/355
f 356/356/356 357/357/357 358/358/358
f 359/359/359 360/360/360 361/361/361
f 362/362/362 363/363/363 364/364/364
f 365/365/365 366/366/366 367/367/367
f 368/368/368 369/369/369 370/370/370
f 371/371/371 372/372/372 373/373/373
f 374/374/374 375/375/375 376/376/376
f 377/377/377 378/378/378 379/379/379
f 380/380/380 381/381/381 382/382/382
f 383/383/383 384/384/384 385/385/385
f 386/386/386 387/387/387 388/388/388
f 389/389/389 390/390/390 391/391/391
f 392/392/392 393/393/393 394/394/394
f 395/395/395 396/396/396 397/397/397
f 398/398/398 399/399/399 400/400/400
f 401/401/401 402/402/402 403/403/403 404/404/404
f 405/405/405 406/406/406 407/407/407 408/408/408
f 409/409/409 410/410/410 411/411/411 412/412/412
f 413/413/413 414/414/414 415/415/415 416/416/416
f 417/417/417 418/418/418 419/419/419 420/420/420
f 421/421/421 422/422/422 423/423/423 424/424/424
f 425/425/425 426/426/426 427/427/427 428/428/428
f 429/429/429 430/430/430 431/431/431 432/432/432
f 433/433/433 434/434/434 435/435/435 436/436/436
f 437/437/437 438/438/438 439/439/439 440/440/440
f 441/441/441 442/442/442 443/443/443 444/444/444
f 445/445/445 446/446/446 447/447/447 448/448/448
f 449/449/449 450/450/450 451/451/451
f 452/452/452 453/453/453 454/454/454
f 455/455/455 456/456/456 457/457/457
f 458/458/458 459/459/459 460/460/460
f 461/461/461 462/462/462 463/463/463
f 464/464/464 465/465/465 466/466/466
f 467/467/467 468/468/468 469/469/469
f 470/470/470 471/471/471 472/472/472
f 473/473/473 474/474/474 475/475/475
f 476/476/476 477/477/477 478/478/478
f 479/479/479 480/480/480 481/481/481
f 482/482/482 483/483/483 484/484/484
f 485/485/485 486/486/486 487/487/487
f 488/488/488 489/489/489 490/490/490
f 491/491/491 492/492/492 493/493/493
f 494/494/494 495/495/495 496/496/496
f 497/497/497 498/498/498 499/499/499
f 500/500/500 501/501/501 502/502/502
f 503/503/503 504/504/504 505/505/505
f 506/506/506 507/507/507 508/508/508
f 509/509/509 510/510/510 511/511/511
f 512/512/512 513/513/513 514/514/514
f 515/515/515 516/516/516 517/517/517
f 518/518/518 519/519/519 520/520/520
usemtl M_Arena_Candle_Flame
f 521/521/521 522/522/522 523/523/523 524/524/524
f 525/525/525 526/526/526 527/527/527 528/528/528
f 529/529/529 530/530/530 531/531/531 532/532/532
f 533/533/533 534/534/534 535/535/535 536/536/536
f 537/537/537 538/538/538 539/539/539 540/540/540
f 541/541/541 542/542/542 543/543/543 544/544/544
f 545/545/545 546/546/546 547/547/547 548/548/548
f 549/549/549 550/550/550 551/551/551 552/552/552
f 553/553/553 554/554/554 555/555/555 556/556/556
f 557/557/557 558/558/558 559/559/559 560/560/560
f 561/561/561 562/562/562 563/563/563 564/564/564
f 565/565/565 566/566/566 567/567/567 568/568/568
f 569/569/569 570/570/570 571/571/571 572/572/572
f 573/573/573 574/574/574 575/575/575 576/576/576
f 577/577/577 578/578/578 579/579/579 580/580/580
f 581/581/581 582/582/582 583/583/583 584/584/584
f 585/585/585 586/586/586 587/587/587 588/588/588
f 589/589/589 590/590/590 591/591/591 592/592/592
